<?xml version="1.0" encoding="UTF-8"?>
<svg id="Layer_1" data-name="Layer 1" xmlns="http://www.w3.org/2000/svg" viewBox="0 0 27.44 6.41">
  <defs>
    <style>
      .cls-1 {
        fill: #5956e8;
      }

      .cls-1, .cls-2 {
        stroke-width: 0px;
      }

      .cls-2 {
        fill: #fff;
      }
    </style>
  </defs>
  <path class="cls-2" d="M0,3.2c0-.54,0-1.09,0-1.63C0,.73.58.06,1.42.03c1.16-.04,2.32-.04,3.48,0,.84.03,1.44.73,1.44,1.58,0,1.06,0,2.13,0,3.19,0,.87-.63,1.56-1.51,1.58-1.12.03-2.24.03-3.35,0C.61,6.37,0,5.7,0,4.83c0-.54,0-1.09,0-1.63Z"/>
  <path class="cls-2" d="M17.39,3.35c0-.23,0-.47,0-.7,0-.09-.07-.25.1-.25.12,0,.29-.1.35.1.04.13.09.05.15.02.4-.24.64-.23,1.01.06.11.08.14.03.2-.02.28-.24.6-.27.92-.12.32.14.38.44.39.75,0,.31-.01.62,0,.93.01.23-.13.18-.27.19-.15.01-.24-.01-.23-.2.02-.27,0-.53,0-.8-.01-.38-.14-.55-.4-.54-.27,0-.42.2-.42.57,0,.26-.02.51,0,.77.02.22-.11.2-.26.2-.15,0-.27.01-.25-.21.02-.29,0-.57,0-.86,0-.24-.08-.45-.37-.47-.29-.01-.43.18-.45.44-.03.29-.03.58,0,.86.02.22-.08.23-.26.24-.2,0-.26-.05-.25-.25.02-.23,0-.47,0-.7Z"/>
  <path class="cls-2" d="M11.69,2.61c.13-.08.22-.15.32-.2.46-.21.92.02,1.03.52.09.41.03.83.04,1.24,0,.23-.19.09-.29.12-.11.03-.21.01-.2-.15.01-.29,0-.58,0-.86,0-.36-.12-.51-.39-.51-.27,0-.46.17-.49.48-.02.29-.02.58,0,.86.01.23-.13.18-.26.19-.15,0-.23-.01-.23-.2.01-.79.01-1.58,0-2.36,0-.18.07-.21.23-.2.13,0,.28-.04.27.19-.02.28,0,.57,0,.88Z"/>
  <path class="cls-2" d="M25.3,2.41c-.28.63-.56,1.27-.84,1.91-.06.14-.14.27-.18.41-.09.35-.29.49-.65.37,0-.01-.02-.03,0-.05.12-.28.39-.6.33-.84-.07-.26-.23-.54-.36-.81-.15-.32-.28-.66-.41-1q.5-.07.68.37c.12.29.24.59.37.93.14-.34.3-.63.39-.94.1-.36.3-.48.68-.36Z"/>
  <path class="cls-2" d="M16,2.35c-.56-.01-.99.42-.99.98-.01.57.41,1.01.97,1.02.55,0,.98-.43.99-.99.01-.57-.41-1.01-.97-1.01ZM16.01,3.91c-.29.02-.5-.22-.5-.57,0-.33.2-.56.47-.57.27,0,.48.23.49.56,0,.33-.18.57-.46.58Z"/>
  <path class="cls-2" d="M21.45,2.71c.32-.37.64-.44.99-.3.36.14.43.47.43.82,0,.29-.01.58,0,.86.01.2-.08.22-.24.21-.14,0-.27.02-.26-.2.02-.3,0-.6,0-.89,0-.25-.11-.44-.39-.44-.28,0-.44.16-.46.43-.02.3-.03.6-.01.89.01.21-.1.21-.25.21-.15,0-.26.01-.25-.2.02-.48,0-.96,0-1.44,0-.1-.09-.27.14-.28.19,0,.35,0,.3.33Z"/>
  <path class="cls-2" d="M8.85,3.37c0-.48.25-.84.63-.97.4-.13.88-.02,1.11.28.08.11.22.29.12.35-.12.08-.36.12-.49-.05-.16-.21-.35-.28-.58-.17-.26.12-.3.36-.28.62.02.22.12.39.33.46.19.06.39.03.51-.16.12-.19.31-.11.46-.1.17.02.05.15.02.22-.16.34-.59.54-1,.47-.44-.07-.76-.37-.82-.77-.01-.07-.01-.15-.01-.19Z"/>
  <path class="cls-2" d="M25.48,2.42c.6-.21.69.34.98.61.3-.24.36-.84.98-.6-.18.25-.36.51-.55.75-.1.12-.09.21,0,.33.19.24.36.49.54.75-.61.24-.69-.33-.97-.6-.29.24-.37.84-.98.6.18-.26.36-.52.55-.76.09-.11.09-.19,0-.3-.19-.25-.37-.51-.56-.77Z"/>
  <path class="cls-2" d="M14.03,2.69c.13-.1.21-.19.31-.25.11-.07.26-.14.36-.07.11.08.05.26.04.39,0,.17-.16.1-.25.11-.3.04-.43.22-.44.5-.01.24-.02.49,0,.73.02.2-.09.2-.23.19-.13,0-.28.05-.27-.19.01-.47,0-.94,0-1.41,0-.11-.1-.29.14-.32.22-.03.35.03.34.31Z"/>
  <path class="cls-1" d="M3.26,4.8c-.97,0-1.38-.57-1.1-1.38.15-.44.29-.89.48-1.32.2-.48.7-.67,1.17-.5.42.16.57.72.28,1.06-.09.1-.2.17-.34.11-.14-.06-.18-.17-.15-.31.02-.12.09-.28-.08-.33-.17-.05-.28.08-.34.23-.18.47-.35.93-.5,1.41-.1.32.25.6.66.54.34-.05.59-.24.73-.55.08-.17.16-.33.38-.21.2.11.1.28.04.42-.27.56-.73.8-1.22.83Z"/>
</svg>