<?xml version="1.0" encoding="UTF-8"?>
<svg id="Layer_1" data-name="Layer 1" xmlns="http://www.w3.org/2000/svg" viewBox="0 0 31.99 32">
  <defs>
    <style>
      .cls-1 {
        fill: #fdfdfe;
      }

      .cls-1, .cls-2 {
        stroke-width: 0px;
      }

      .cls-2 {
        fill: #5956e8;
      }
    </style>
  </defs>
  <path class="cls-2" d="M16,32c-2.65,0-5.3,0-7.95,0-3.76-.02-6.95-2.54-7.83-6.17C.07,25.2,0,24.57,0,23.93c0-5.28,0-10.57,0-15.85C.01,3.6,3.55.03,8.01.02c5.31-.02,10.63-.02,15.94,0,4.49.02,8.02,3.59,8.03,8.09,0,5.27,0,10.54,0,15.81,0,4.51-3.56,8.07-8.08,8.08-2.63,0-5.27,0-7.9,0ZM15.96,24.14c.2,0,.42,0,.64-.03.34-.04.68-.08,1.01-.16,2.6-.62,4.4-2.15,5.27-4.7.32-.94-.27-1.66-1.25-1.54-.5.06-.75.39-.93.84-.85,2.2-2.72,3.41-4.87,3.19-1.98-.21-2.81-1.51-2.14-3.38.64-1.78,1.28-3.55,1.92-5.33.19-.52.32-1.06.63-1.52.31-.47.73-.78,1.32-.79.46,0,.72.24.75.7.03.38-.09.73-.2,1.09-.18.55,0,1.04.48,1.36.58.39,1.28.33,1.81-.15.49-.44.68-1.03.82-1.65.47-2.14-.66-3.83-2.79-4.18-2.31-.38-4.36.71-5.2,2.9-.94,2.47-1.81,4.97-2.63,7.49-.67,2.07.11,3.93,1.99,5.03,1.03.6,2.16.82,3.36.84Z"/>
  <path class="cls-1" d="M15.96,24.14c-1.2-.01-2.33-.23-3.36-.84-1.88-1.11-2.66-2.96-1.99-5.03.82-2.52,1.69-5.02,2.63-7.49.83-2.19,2.88-3.28,5.2-2.9,2.13.35,3.26,2.04,2.79,4.18-.14.62-.33,1.21-.82,1.65-.53.48-1.23.53-1.81.15-.48-.32-.66-.81-.48-1.36.12-.35.24-.71.2-1.09-.04-.46-.29-.7-.75-.7-.59,0-1.01.32-1.32.79-.31.46-.44,1-.63,1.52-.64,1.78-1.28,3.55-1.92,5.33-.67,1.86.16,3.17,2.14,3.38,2.15.23,4.01-.99,4.87-3.19.18-.46.43-.78.93-.84.98-.12,1.57.6,1.25,1.54-.88,2.55-2.67,4.08-5.27,4.7-.33.08-.67.12-1.01.16-.22.03-.45.02-.64.03Z"/>
</svg>